<svg width="17" height="15" viewBox="0 0 17 15" fill="none" xmlns="http://www.w3.org/2000/svg">
<path d="M2.18228 4H14.4323H2.18228ZM2.18228 4C1.71815 4 1.27303 3.81563 0.944845 3.48744C0.616656 3.15925 0.432281 2.71413 0.432281 2.25C0.432281 1.78587 0.616656 1.34075 0.944845 1.01256C1.27303 0.684374 1.71815 0.5 2.18228 0.5H14.4323C14.8964 0.5 15.3415 0.684374 15.6697 1.01256C15.9979 1.34075 16.1823 1.78587 16.1823 2.25C16.1823 2.71413 15.9979 3.15925 15.6697 3.48744C15.3415 3.81563 14.8964 4 14.4323 4H2.18228ZM2.18228 4V12.75C2.18228 13.2141 2.36666 13.6592 2.69484 13.9874C3.02303 14.3156 3.46815 14.5 3.93228 14.5H12.6823C13.1464 14.5 13.5915 14.3156 13.9197 13.9874C14.2479 13.6592 14.4323 13.2141 14.4323 12.75V4H2.18228ZM6.55728 7.5H10.0573H6.55728Z" fill="#6A6A6A"/>
</svg>
